<svg width="200" height="200" viewBox="0 0 200 200" fill="none" xmlns="http://www.w3.org/2000/svg">
<g clip-path="url(#clip0_221_17)">
<path d="M3.90942 100C3.90942 112.619 6.3949 125.115 11.2239 136.773C16.053 148.431 23.131 159.024 32.0539 167.947C40.9769 176.87 51.5699 183.948 63.2282 188.777C74.8866 193.606 87.3819 196.092 100.001 196.092C112.62 196.092 125.115 193.606 136.773 188.777C148.432 183.948 159.025 176.87 167.948 167.947C176.871 159.024 183.949 148.431 188.778 136.773C193.607 125.115 196.092 112.619 196.092 100C196.092 74.5153 185.968 50.0741 167.948 32.0535C149.927 14.0328 125.486 3.90894 100.001 3.90894C74.5158 3.90894 50.0746 14.0328 32.0539 32.0535C14.0333 50.0741 3.90942 74.5153 3.90942 100Z" fill="#FDDF6D"/>
<path d="M120.592 181.905C67.5223 181.905 24.5008 138.884 24.5008 85.814C24.5008 57.4609 36.7833 31.9796 56.3149 14.3914C25.2063 30.2976 3.90942 62.6609 3.90942 100C3.90942 153.069 46.9305 196.091 100 196.091C124.717 196.091 147.251 186.756 164.277 171.423C151.171 178.124 136.323 181.905 120.592 181.905Z" fill="#FCC56B"/>
<path d="M143.716 162.983H97.0531C94.8937 162.983 93.1441 161.233 93.1441 159.074C93.1441 156.915 94.8937 155.165 97.0531 155.165H143.716C145.875 155.165 147.625 156.915 147.625 159.074C147.625 161.233 145.876 162.983 143.716 162.983ZM86.3617 122.754C76.8551 122.754 68.266 120.321 63.3863 116.247C61.7289 114.863 61.5074 112.398 62.891 110.741C64.2742 109.084 66.739 108.862 68.3965 110.246C71.809 113.095 78.8605 114.936 86.3613 114.936C93.6828 114.936 100.831 113.06 104.573 110.157C106.278 108.834 108.733 109.144 110.057 110.85C111.38 112.556 111.07 115.011 109.364 116.334C104.184 120.354 95.5844 122.754 86.3617 122.754ZM154.169 122.754C144.662 122.754 136.073 120.321 131.194 116.247C129.536 114.863 129.315 112.398 130.698 110.741C132.082 109.084 134.547 108.862 136.204 110.246C139.616 113.095 146.668 114.936 154.169 114.936C161.49 114.936 168.639 113.06 172.38 110.157C174.085 108.834 176.541 109.144 177.864 110.85C179.188 112.556 178.878 115.011 177.172 116.334C171.991 120.354 163.392 122.754 154.169 122.754ZM67.848 102.75C66.3953 102.75 65.0433 102.587 63.8383 102.253C61.7574 101.678 60.5375 99.5243 61.1129 97.443C61.6887 95.3622 63.8441 94.1415 65.923 94.7176C67.8472 95.2508 71.7965 94.8766 76.2832 92.8411C80.675 90.85 83.6562 88.0325 84.6629 86.1243C85.6699 84.2141 88.034 83.4821 89.9437 84.4899C91.8535 85.4969 92.5851 87.8618 91.5781 89.7708C89.5297 93.6547 85.0191 97.4645 79.5121 99.9618C75.4871 101.787 71.373 102.75 67.848 102.75ZM171.676 102.75C168.15 102.75 164.037 101.788 160.011 99.9614C154.504 97.4649 149.994 93.6551 147.946 89.7711C146.938 87.8618 147.67 85.4973 149.58 84.4903C151.49 83.4817 153.854 84.2157 154.861 86.1247C155.868 88.0329 158.849 90.85 163.239 92.8411C167.727 94.8762 171.677 95.2508 173.6 94.718C175.683 94.1442 177.834 95.3622 178.41 97.443C178.985 99.5239 177.766 101.677 175.685 102.253C174.48 102.586 173.128 102.75 171.676 102.75Z" fill="#7F184C"/>
<path d="M138.891 7.84531C136.904 7.00469 134.609 7.93594 133.769 9.92461C132.929 11.9133 133.86 14.207 135.848 15.0465C170.07 29.5055 192.182 62.852 192.182 99.9996C192.182 150.829 150.83 192.181 100.001 192.181C49.1719 192.181 7.81797 150.829 7.81797 99.9996C7.81797 49.1703 49.1707 7.81836 100 7.81836C102.159 7.81836 103.909 6.06875 103.909 3.90938C103.909 1.75 102.159 0 100 0C44.8594 0 0 44.8594 0 99.9996C0 155.14 44.8594 200 100 200C155.14 200 200 155.141 200 100C200 59.7027 176.013 23.5297 138.891 7.84531Z" fill="black"/>
<path d="M97.0532 155.165C94.8938 155.165 93.1442 156.914 93.1442 159.074C93.1442 161.233 94.8938 162.983 97.0532 162.983H143.716C145.875 162.983 147.625 161.233 147.625 159.074C147.625 156.914 145.875 155.165 143.716 155.165H97.0532ZM68.3973 110.246C66.7395 108.862 64.275 109.084 62.8918 110.741C61.5079 112.399 61.7301 114.864 63.3871 116.247C68.2668 120.321 76.8559 122.754 86.3625 122.754C95.5848 122.754 104.184 120.354 109.366 116.335C111.072 115.012 111.382 112.556 110.059 110.851C108.735 109.144 106.28 108.835 104.574 110.158C100.832 113.06 93.684 114.936 86.3629 114.936C78.8614 114.936 71.8094 113.095 68.3973 110.246ZM131.194 116.247C136.074 120.321 144.663 122.754 154.17 122.754C163.392 122.754 171.991 120.354 177.173 116.335C178.879 115.012 179.189 112.556 177.866 110.851C176.542 109.144 174.086 108.835 172.381 110.158C168.639 113.06 161.491 114.936 154.17 114.936C146.669 114.936 139.618 113.095 136.205 110.246C134.548 108.862 132.083 109.085 130.7 110.742C129.315 112.398 129.537 114.864 131.194 116.247ZM67.8481 102.75C71.3731 102.75 75.4864 101.788 79.5118 99.9625C85.0188 97.4652 89.5301 93.6559 91.5778 89.7719C92.5852 87.8625 91.8532 85.498 89.9434 84.491C88.0336 83.4824 85.6696 84.2156 84.6625 86.1254C83.6555 88.0336 80.6746 90.8508 76.2829 92.8418C71.7961 94.877 67.8473 95.252 65.9231 94.7184C63.8438 94.1449 61.6887 95.3625 61.1129 97.4434C60.5375 99.5234 61.7567 101.678 63.8379 102.254C65.043 102.586 66.3953 102.75 67.8481 102.75ZM160.012 99.9625C164.038 101.788 168.151 102.75 171.676 102.75C173.128 102.75 174.481 102.587 175.686 102.253C177.766 101.677 178.986 99.5231 178.41 97.4426C178.273 96.9478 178.04 96.4848 177.725 96.08C177.409 95.6753 177.016 95.3368 176.57 95.0838C176.123 94.8309 175.631 94.6684 175.121 94.6058C174.612 94.5431 174.095 94.5815 173.6 94.7188C171.678 95.2488 167.729 94.8773 163.24 92.8418C158.85 90.8512 155.868 88.0336 154.862 86.1254C153.855 84.2156 151.491 83.4828 149.581 84.491C147.671 85.498 146.939 87.8629 147.947 89.7719C149.994 93.6562 154.504 97.4652 160.012 99.9625Z" fill="black"/>
<path d="M120.74 7.35979C120.74 8.39652 121.152 9.39078 121.885 10.1239C122.618 10.8569 123.612 11.2688 124.649 11.2688C125.686 11.2688 126.68 10.8569 127.413 10.1239C128.146 9.39078 128.558 8.39652 128.558 7.35979C128.558 6.32306 128.146 5.3288 127.413 4.59572C126.68 3.86264 125.686 3.45081 124.649 3.45081C123.612 3.45081 122.618 3.86264 121.885 4.59572C121.152 5.3288 120.74 6.32306 120.74 7.35979Z" fill="black"/>
</g>
<defs>
<clipPath id="clip0_221_17">
<rect width="200" height="200" fill="white"/>
</clipPath>
</defs>
</svg>
